<?xml version="1.0" standalone="no"?>
<!DOCTYPE svg PUBLIC "-//W3C//DTD SVG 20010904//EN"
 "http://www.w3.org/TR/2001/REC-SVG-20010904/DTD/svg10.dtd">
<svg version="1.0" xmlns="http://www.w3.org/2000/svg"
 width="500.000000pt" height="500.000000pt" viewBox="0 0 500.000000 500.000000"
 preserveAspectRatio="xMidYMid meet">
<metadata>
Created by potrace 1.14, written by Peter Selinger 2001-2017
</metadata>
<g transform="translate(0.000000,500.000000) scale(0.100000,-0.100000)"
fill="#000000" stroke="none">
<path d="M1270 4576 c-14 -6 -28 -15 -32 -21 -4 -5 -8 -7 -8 -3 0 4 -12 -5
-27 -19 -16 -14 -44 -37 -63 -52 -19 -14 -44 -35 -56 -46 -12 -11 -34 -29 -50
-40 -15 -11 -35 -27 -44 -35 -14 -13 -49 -41 -118 -95 -7 -5 -21 -17 -31 -25
-14 -13 -87 -72 -129 -105 -7 -5 -18 -15 -25 -20 -7 -6 -34 -28 -62 -50 -52
-42 -76 -62 -111 -92 -12 -10 -35 -29 -52 -42 -17 -13 -36 -37 -41 -55 -5 -18
-9 -260 -8 -591 2 -528 3 -562 21 -587 21 -32 6 -30 258 -32 97 0 179 -4 183
-7 8 -9 55 13 56 26 4 54 3 85 -4 85 -5 0 -5 6 0 12 7 13 5 69 -3 77 -2 3 -80
5 -172 5 l-167 1 -1 186 c-1 103 -4 192 -8 198 -4 6 -4 11 1 11 10 0 8 213 -1
229 -4 6 -4 11 1 11 4 0 7 65 7 144 -2 139 -1 145 21 164 13 11 26 18 29 15 3
-4 6 -2 6 3 0 5 32 34 70 64 39 30 70 58 70 62 0 5 4 8 9 8 8 0 51 34 92 73
11 9 21 17 24 17 4 0 36 26 69 55 6 6 42 35 81 65 38 30 77 62 87 70 78 70
133 109 153 109 6 1 31 -19 58 -44 26 -24 47 -43 47 -40 0 2 12 -9 28 -23 15
-15 44 -41 66 -57 37 -29 65 -52 131 -109 17 -14 35 -26 40 -26 6 0 35 23 65
50 30 27 58 50 63 50 16 0 5 21 -25 47 -17 16 -39 35 -48 43 -9 8 -41 35 -71
60 -92 76 -101 84 -125 108 -13 12 -26 22 -29 22 -3 0 -16 10 -29 23 -13 12
-43 38 -66 56 -23 19 -48 41 -56 48 -7 7 -19 13 -27 13 -9 0 -17 4 -19 9 -1 4
-14 3 -28 -3z"/>
<path d="M2416 4567 c-14 -5 -26 -13 -26 -18 0 -6 -4 -7 -10 -4 -5 3 -10 2
-10 -2 0 -5 -42 -43 -92 -85 -51 -42 -102 -85 -113 -95 -11 -10 -47 -40 -80
-68 -33 -27 -69 -57 -80 -67 -11 -9 -56 -47 -99 -83 -44 -37 -85 -72 -92 -78
-6 -7 -26 -23 -44 -37 -17 -14 -41 -34 -54 -45 -12 -11 -44 -38 -71 -60 -27
-22 -56 -47 -65 -55 -8 -8 -40 -35 -70 -60 -30 -25 -60 -52 -67 -60 -7 -8 -13
-12 -13 -8 0 3 -15 -8 -34 -25 -38 -36 -61 -56 -124 -103 -24 -19 -40 -34 -35
-34 4 0 -7 -10 -24 -21 -18 -12 -33 -26 -33 -32 0 -6 -2 -8 -5 -5 -9 8 -174
-142 -176 -159 0 -5 -3 -17 -6 -28 -3 -11 -6 -463 -6 -1005 -2 -903 0 -988 15
-1020 17 -36 47 -67 83 -85 13 -7 154 -11 398 -10 358 0 380 -1 389 -18 5 -10
19 -29 30 -42 11 -13 18 -25 17 -27 -2 -3 3 -12 11 -21 28 -31 40 -46 40 -52
0 -8 44 -69 53 -73 4 -2 7 -10 7 -18 0 -8 5 -14 10 -14 6 0 10 -4 10 -9 0 -11
130 -203 144 -213 7 -5 7 -8 1 -8 -7 0 -7 -3 0 -8 6 -4 15 -14 20 -23 25 -40
96 -146 110 -164 9 -11 24 -32 32 -47 17 -27 59 -53 81 -49 6 1 12 -2 12 -7 0
-5 8 -8 18 -7 29 3 92 33 92 45 0 6 4 9 8 6 7 -4 37 39 87 125 29 51 91 156
100 171 5 9 25 43 44 77 19 34 38 61 42 61 5 0 8 3 7 7 -2 7 39 81 114 208 10
17 26 45 35 63 9 17 24 32 32 33 9 1 211 2 449 3 l434 1 45 48 c25 27 43 54
39 62 -2 7 0 15 6 17 7 3 10 307 9 983 -1 539 -2 987 -4 995 -10 49 -46 95
-117 149 -19 14 -37 28 -40 32 -3 3 -27 23 -55 45 -27 22 -59 47 -70 56 -11 9
-47 38 -80 65 -33 26 -61 51 -63 55 -2 4 -10 8 -17 8 -7 0 -15 3 -17 8 -1 4
-28 27 -58 52 -30 25 -56 48 -58 53 -2 4 -8 7 -14 7 -5 0 -15 6 -22 13 -7 6
-32 28 -56 47 -24 19 -49 41 -56 48 -7 6 -17 12 -22 12 -6 0 -12 4 -14 8 -1 4
-23 23 -47 42 -25 19 -52 42 -61 50 -32 29 -74 60 -83 60 -4 0 -5 5 -2 10 3 6
0 10 -7 10 -7 0 -27 14 -45 30 -18 17 -36 30 -42 30 -5 0 -11 3 -13 8 -1 4
-28 27 -58 52 -30 25 -56 48 -58 53 -2 4 -8 7 -13 7 -5 0 -21 11 -36 25 -62
55 -267 215 -277 216 -40 5 -67 4 -90 -4z m114 -445 c25 -20 51 -42 58 -51 6
-8 12 -12 12 -8 0 4 8 -1 18 -10 10 -10 30 -27 43 -38 25 -20 113 -91 137
-110 7 -5 18 -15 25 -20 34 -28 124 -101 135 -110 7 -5 18 -15 25 -20 7 -6 34
-28 62 -50 27 -22 55 -44 61 -50 6 -5 26 -22 45 -37 19 -14 44 -35 56 -45 12
-10 36 -29 53 -43 18 -14 43 -34 55 -45 48 -41 65 -55 71 -55 3 0 15 -10 28
-22 13 -13 52 -45 87 -73 35 -27 71 -58 80 -67 9 -10 20 -18 23 -18 4 0 14 -6
22 -14 7 -8 26 -24 41 -36 l28 -22 0 -799 c0 -793 0 -799 -20 -800 -11 0 -194
-1 -406 -2 l-386 -2 -34 -26 c-19 -15 -44 -45 -54 -68 -11 -22 -23 -41 -27
-41 -5 0 -8 -4 -8 -10 0 -5 -13 -31 -29 -58 -15 -26 -39 -68 -53 -93 -49 -85
-101 -174 -107 -179 -3 -3 -7 -12 -9 -20 -2 -8 -10 -22 -18 -31 -8 -9 -11 -19
-7 -22 3 -4 1 -7 -5 -7 -7 0 -19 -15 -27 -32 -9 -18 -21 -43 -29 -56 l-13 -22
-16 22 c-9 13 -65 97 -124 188 -59 91 -110 167 -113 170 -3 3 -36 52 -74 110
-38 58 -73 107 -78 108 -4 2 -6 8 -3 12 3 5 -5 14 -17 21 -13 7 -26 17 -30 23
-5 8 -115 11 -360 12 l-353 1 0 797 c-1 703 1 800 15 814 8 10 42 39 75 67 33
27 65 54 71 60 6 5 31 26 55 47 24 20 55 46 69 57 14 12 45 38 69 59 24 20 51
45 59 54 9 9 19 15 24 12 4 -3 8 3 8 12 0 10 3 15 6 12 3 -4 14 1 23 10 10 10
42 37 71 62 30 25 64 54 76 65 12 11 39 34 60 50 21 17 43 36 50 43 7 6 17 12
23 12 6 0 11 7 11 15 0 8 4 15 10 15 5 0 21 11 35 25 14 14 25 23 25 20 0 -3
19 13 43 34 64 60 77 71 82 71 2 0 15 10 27 23 13 12 48 42 78 67 29 25 65 55
78 67 27 25 28 25 92 -25z"/>
<path d="M2895 3060 c-19 -7 -20 -16 -21 -229 0 -172 2 -224 13 -232 9 -9 13
-8 13 0 0 7 5 9 13 4 17 -11 77 -11 77 -1 0 5 6 6 13 1 19 -12 57 -11 57 1 0
7 3 8 8 1 4 -6 21 -11 37 -11 17 0 33 5 37 11 5 7 8 7 8 0 0 -14 103 -14 112
0 4 5 8 110 8 231 0 186 -2 223 -15 227 -8 4 -17 2 -20 -4 -4 -5 -12 -6 -18
-2 -19 12 -37 12 -37 1 0 -7 -4 -7 -13 0 -7 6 -19 7 -26 3 -7 -5 -28 -5 -47
-1 -21 5 -34 4 -34 -2 0 -7 -4 -7 -13 0 -7 6 -18 7 -26 3 -8 -5 -26 -5 -41 -1
-15 4 -33 4 -41 -1 -7 -4 -16 -4 -19 0 -3 5 -14 5 -25 1z"/>
<path d="M3655 4564 c-30 -22 -77 -60 -104 -83 -13 -12 -28 -21 -33 -21 -5 0
-6 -4 -3 -10 3 -5 1 -10 -5 -10 -9 0 -50 -33 -102 -82 -10 -10 -22 -18 -28
-18 -5 0 -10 -3 -10 -7 0 -5 -28 -30 -62 -58 -34 -27 -74 -62 -89 -77 -15 -14
-30 -23 -33 -20 -3 3 -6 2 -6 -3 0 -8 56 -65 64 -65 2 0 18 -13 36 -30 18 -16
37 -30 44 -30 6 0 27 15 47 33 20 17 58 50 84 72 27 22 57 48 67 58 10 9 20
17 23 17 2 0 17 12 33 28 16 15 42 38 58 51 16 13 36 30 45 37 13 12 21 9 56
-21 23 -19 44 -35 47 -35 3 0 19 -12 35 -27 16 -16 36 -33 43 -38 71 -55 174
-141 176 -147 2 -5 8 -8 14 -8 5 0 15 -6 22 -13 8 -7 33 -29 56 -48 23 -18 47
-38 54 -44 11 -10 149 -121 174 -140 50 -38 47 -10 47 -502 l0 -458 -165 -1
c-91 -1 -170 -2 -176 -3 -7 -1 -12 -35 -12 -99 l-2 -97 115 0 c74 1 115 -3
115 -9 0 -8 3 -8 8 -1 4 7 48 10 107 10 55 -1 112 3 127 8 51 17 52 25 52 633
l0 562 -25 36 c-13 20 -31 38 -39 41 -8 3 -34 22 -57 43 -23 20 -54 46 -69 57
-15 11 -32 25 -38 30 -6 6 -80 67 -165 135 -85 68 -163 132 -173 142 -10 10
-22 18 -27 18 -6 0 -17 10 -25 22 -9 12 -16 19 -16 14 0 -5 -8 0 -17 10 -10
11 -36 32 -58 49 -22 16 -42 32 -45 35 -3 3 -25 22 -50 41 -49 39 -84 46 -115
23z"/>
</g>
</svg>
